<svg xmlns="http://www.w3.org/2000/svg" viewBox="0 0 512 512" width="192" height="192">
  <defs>
    <linearGradient id="bgGrad192" x1="0%" y1="0%" x2="100%" y2="100%">
      <stop offset="0%" stop-color="#f59e0b" />
      <stop offset="100%" stop-color="#d97706" />
    </linearGradient>
    <linearGradient id="rimGrad192" x1="0%" y1="0%" x2="0%" y2="100%">
      <stop offset="0%" stop-color="#ffffff" />
      <stop offset="100%" stop-color="#fef3c7" />
    </linearGradient>
  </defs>
  <rect width="512" height="512" rx="115" fill="url(#bgGrad192)" />
  <rect x="16" y="16" width="480" height="480" rx="99" fill="none" stroke="#ffffff" stroke-opacity="0.25" stroke-width="6" />
  <circle cx="256" cy="256" r="185" fill="#fed7aa" />
  <circle cx="256" cy="256" r="175" fill="url(#rimGrad192)" stroke="#fbbf24" stroke-width="10" />

  <!-- Stars -->
  <path d="M100 80 Q105 100 125 105 Q105 110 100 130 Q95 110 75 105 Q95 100 100 80 Z" fill="#ffffff" opacity="0.9" />
  <path d="M420 90 Q424 105 440 108 Q424 112 420 128 Q416 112 400 108 Q416 105 420 90 Z" fill="#ffffff" opacity="0.9" />

  <!-- Digits -->
  <text x="256" y="128" font-family="'Tajawal', 'Fredoka', sans-serif" font-size="38" font-weight="900" fill="#1e293b" text-anchor="middle">12</text>
  <text x="390" y="270" font-family="'Tajawal', 'Fredoka', sans-serif" font-size="38" font-weight="900" fill="#1e293b" text-anchor="middle">3</text>
  <text x="256" y="412" font-family="'Tajawal', 'Fredoka', sans-serif" font-size="38" font-weight="900" fill="#1e293b" text-anchor="middle">6</text>
  <text x="122" y="270" font-family="'Tajawal', 'Fredoka', sans-serif" font-size="38" font-weight="900" fill="#1e293b" text-anchor="middle">9</text>

  <!-- Dots -->
  <circle cx="328" cy="132" r="7" fill="#64748b" />
  <circle cx="380" cy="184" r="7" fill="#64748b" />
  <circle cx="380" cy="328" r="7" fill="#64748b" />
  <circle cx="328" cy="380" r="7" fill="#64748b" />
  <circle cx="184" cy="380" r="7" fill="#64748b" />
  <circle cx="132" cy="328" r="7" fill="#64748b" />
  <circle cx="132" cy="184" r="7" fill="#64748b" />
  <circle cx="184" cy="132" r="7" fill="#64748b" />

  <!-- Hands (Red Hour, Blue Minute) -->
  <line x1="256" y1="256" x2="175" y2="155" stroke="#dc2626" stroke-width="18" stroke-linecap="round" />
  <line x1="256" y1="256" x2="345" y2="125" stroke="#0284c7" stroke-width="12" stroke-linecap="round" />

  <!-- Center Hub -->
  <circle cx="256" cy="256" r="22" fill="#d97706" />
  <circle cx="256" cy="256" r="14" fill="#fbbf24" />
  <circle cx="256" cy="256" r="6" fill="#ffffff" />
</svg>
